<?xml version="1.0" encoding="UTF-8" standalone="no"?>
<svg
   height="1276.989"
   viewBox="0 0 1275.5288 1276.989"
   width="1275.5288"
   version="1.1"
   xmlns="http://www.w3.org/2000/svg">
  <path
     id="shape1"
     fill-rule="nonzero"
     fill="#235b29"
     d="M 49.99721,0 H 1225.5316 a 49.997211,50.014385 0 0 1 49.9972,50.014385 V 1225.9526 a 49.997211,50.014385 0 0 1 -49.9972,50.0143 H 49.99721 A 49.997211,50.014385 0 0 1 0,1225.9526 V 50.014385 A 49.997211,50.014385 0 0 1 49.99721,0 Z"
     style="display:inline;opacity:1;stroke-width:1.00012" />
  <g
     id="group2"
     transform="matrix(1.0735282,0,0,1.0744089,67.932551,396.06396)">
    <g
       id="g1"
       style="display:inline">
      <path
         id="shape264"
         stroke-width="1"
         fill-rule="nonzero"
         transform="translate(695.4604,406.5127)"
         stroke="#ffffff"
         fill="#ffffff"
         d="M 86.6,1 C 69.5,-1.9 48.6,1.9 36.7,8.7 24.7,15.5 3.6,48.6 3.6,48.6 L 0,52.4 c 0,0 16.2,0.9 36.4,8 20.1,7 46.2,-5.2 57.7,-13.1 11.5,-8 43.7,-44.2 43.7,-44.2 0,0 -4.9,0.8 -13.9,0.8 C 115,3.8 103.8,3.8 86.6,1 Z"
         style="display:inline" />
      <path
         id="shape267"
         stroke-width="1"
         fill-rule="nonzero"
         transform="translate(459.3542,291.5539)"
         stroke="#ffffff"
         fill="#ffffff"
         d="M 56.3,12.4 C 41.6,14.9 25.6,23.7 17.7,32.6 9.8,41.4 1.8,74.2 1.8,74.2 l -1.8,4 c 0,0 13.4,-3.7 31.8,-3.5 C 50.2,74.9 68,57.6 75.1,48 82.3,38.3 98.5,0 98.5,0 c 0,0 -3.8,1.9 -11,4.4 -7.3,2.4 -16.5,5.5 -31.2,8 z"
         style="display:inline" />
      <path
         id="shape270"
         stroke-width="1"
         fill-rule="nonzero"
         transform="translate(122.8411,155.2888)"
         stroke="#ffffff"
         fill="#ffffff"
         d="M 62.1,1.7 C 48.4,-1.2 0,0.5 0,0.5 c 0,0 3.9,3.1 10,9.5 6.1,6.5 14,14.6 23.7,29 9.8,14.5 26.9,27 40.2,31 13.2,4 51.7,-3.6 51.7,-3.6 h 5.1 c 0,0 -10.5,-12.4 -19.4,-31.9 C 102.7,15 75.9,4.5 62.1,1.7 Z" />
      <path
         id="shape273"
         stroke-width="1"
         fill-rule="nonzero"
         transform="translate(432.178,59.8246)"
         stroke="#ffffff"
         fill="#ffffff"
         d="M 40.1,15.1 C 28,18.9 15.5,28.1 9.8,36.5 4.2,44.9 1.1,73.4 1.1,73.4 L 0,77.1 c 0,0 10.9,-4.7 26.4,-6.6 C 42,68.6 55.1,52.1 60.1,43.1 65,34.2 74.4,0 74.4,0 c 0,0 -3,2.1 -8.8,4.9 -5.9,2.9 -13.3,6.5 -25.5,10.2 z" />
      <path
         id="shape276"
         stroke-width="1"
         fill-rule="nonzero"
         transform="translate(0,382.7556)"
         stroke="#ffffff"
         fill="#ffffff"
         d="M 116.5,18.5 C 102.9,2.1 74.2,-0.8 60.2,0.2 46.2,1.1 0,15.7 0,15.7 c 0,0 4.6,1.9 12.2,6.5 7.7,4.5 17.3,10.4 30.7,21.6 13.2,11.2 33.1,18.7 46.8,19 13.8,0.3 48.9,-17.2 48.9,-17.2 l 4.9,-1.5 c 0.2,-0.1 -13.2,-9.2 -27,-25.6 z" />
      <path
         id="shape279"
         stroke-width="1"
         fill-rule="nonzero"
         transform="translate(346.6091,150.7466)"
         stroke="#ffffff"
         fill="#ffffff"
         d="m 13.9,0 c 0,0 -0.4,3 -1.8,8.3 C 10.6,13.6 8.9,20.2 4.4,29.9 0,39.6 -1.1,52.5 1,60.7 3.1,68.9 19.4,86.6 19.4,86.6 L 21,89.3 C 21,89.3 24.1,79.9 31.5,69 38.9,58.2 35.8,40.9 32.9,32.8 30.1,24.8 13.9,0 13.9,0 Z" />
      <path
         id="shape282"
         stroke-width="1"
         fill-rule="nonzero"
         transform="translate(458.8987,447.2255)"
         stroke="#ffffff"
         fill="#ffffff"
         d="M 37.3,15.7 C 25.6,19.6 13.8,28.8 8.6,37 3.3,45.2 1,72.9 1,72.9 l -1,3.4 c 0,0 10.5,-4.7 25.4,-7 C 40.4,67 52.7,50.8 57.3,42 61.8,33.3 70,0 70,0 70,0 67.2,2.1 61.6,5 56,8.1 49,11.9 37.3,15.7 Z" />
      <path
         id="shape285"
         stroke-width="1"
         fill-rule="nonzero"
         transform="translate(580.4625,152.2977)"
         stroke="#ffffff"
         fill="#ffffff"
         d="M 81,3.1 C 63.7,2 43.2,7.9 32,15.9 20.8,23.9 3.1,58.9 3.1,58.9 L 0,63 c 0,0 16.2,-0.7 37,4.3 20.8,4.9 45.5,-9.8 56.2,-19 C 103.9,39.2 132.1,0 132.1,0 c 0,0 -4.8,1.2 -13.6,2.1 -9,1 -20.2,2.1 -37.5,1 z" />
      <path
         id="shape288"
         stroke-width="1"
         fill-rule="nonzero"
         transform="translate(244.1368,24.0757)"
         stroke="#ffffff"
         fill="#ffffff"
         d="M 46,8.2 C 41.1,13.2 34.9,19.6 23.9,27.7 12.9,35.8 3.5,49.7 0.6,60.3 -2.1,70.8 4.9,101 4.9,101 l 0.2,4.1 c 0,0 9.5,-8.6 24.6,-16.1 C 44.9,81.5 52.3,60 54.2,49.1 56,38.1 53.3,0 53.3,0 53.3,0 51,3.2 46,8.2 Z" />
      <path
         id="shape291"
         stroke-width="1"
         fill-rule="nonzero"
         transform="translate(159.3194,293.8333)"
         stroke="#ffffff"
         fill="#ffffff"
         d="M 39.4,18.6 C 31.5,12.9 0,0 0,0 c 0,0 1.6,3.1 3.7,9 2.1,6 4.8,13.3 6.9,25.4 2.1,11.9 9.5,24.9 16.8,31.3 7.3,6.3 34.1,12.5 34.1,12.5 l 3.2,1.5 c 0,0 -3.1,-10.9 -3.1,-25.9 C 61.5,38.8 47.3,24.3 39.4,18.6 Z" />
      <path
         id="shape294"
         stroke-width="1"
         fill-rule="nonzero"
         transform="translate(174.0934,522.2798)"
         stroke="#ffffff"
         fill="#ffffff"
         d="M 66,1 C 49.3,-0.5 31.8,14 24.6,22.3 17.4,30.6 0,64.4 0,64.4 0,64.4 3.6,62.9 10.4,61.2 17.1,59.5 25.7,57.3 39.3,56.1 52.9,54.9 68,48 75.9,40.4 83.6,32.9 93.3,3.6 93.3,3.6 L 95.2,0 C 95.3,0 82.8,2.4 66,1 Z" />
      <path
         id="shape297"
         stroke-width="1"
         fill-rule="nonzero"
         transform="translate(566.8738,533.8475)"
         stroke="#ffffff"
         fill="#ffffff"
         d="M 94.8,50.9 C 90.1,45.5 84.2,38.9 76.7,27.1 69.3,15.3 56,4.8 45.5,1.3 35.1,-2.3 4.1,2.7 4.1,2.7 L 0,2.6 c 0,0 8,10.2 14.5,26 6.5,15.7 27.6,24.9 38.5,27.5 10.8,2.6 49.5,2.7 49.5,2.7 0,0 -2.9,-2.6 -7.7,-7.9 z" />
      <path
         id="shape300"
         stroke-width="1"
         fill-rule="nonzero"
         transform="translate(3.1919,528.0199)"
         stroke="#ffffff"
         fill="#ffffff"
         d="M 43.6,1.7 C 33.1,4.2 0,21 0,21 c 0,0 3.7,0.9 10.1,3.4 6.4,2.5 14.4,5.6 25.9,12.4 11.5,6.9 27.5,10.1 38,8.6 10.4,-1.4 34.9,-19.2 34.9,-19.2 l 3.5,-1.8 c 0,0 -11.3,-5.2 -23.8,-15.9 C 76.1,-2.1 54.1,-0.7 43.6,1.7 Z" />
      <path
         id="shape303"
         stroke-width="1"
         fill-rule="nonzero"
         transform="translate(716.4359,542.3371)"
         stroke="#ffffff"
         fill="#ffffff"
         d="M 72.2,12.2 C 62.4,4.6 47.9,-0.2 38,0 28.2,0.2 3.5,13.9 3.5,13.9 L 0,15.1 c 0,0 9.9,6.1 20.2,17.5 10.4,11.4 31.1,12.5 41,11.5 10,-1.1 42.7,-13 42.7,-13 0,0 -3.4,-1.3 -9.1,-4.3 C 89.2,23.7 82.1,19.9 72.2,12.2 Z" />
      <path
         id="shape306"
         stroke-width="1"
         fill-rule="nonzero"
         transform="translate(507.5963,118.2809)"
         stroke="#ffffff"
         fill="#ffffff"
         d="m 30.5,0 c 0,0 -1.3,3 -4.2,8.1 -3,5.1 -6.8,11.5 -14.1,20.4 C 4.9,37.3 0.1,50.5 0,59.6 0,68.7 11.8,91.7 11.8,91.7 l 1,3.3 c 0,0 5.9,-8.9 16.7,-18.1 C 40.2,67.7 41.9,48.8 41.1,39.5 40.4,30.4 30.5,0 30.5,0 Z" />
      <path
         id="shape309"
         stroke-width="1"
         fill-rule="nonzero"
         transform="translate(580.7359,372.9524)"
         stroke="#ffffff"
         fill="#ffffff"
         d="m 60.6,0.7 c -12,-2 -26.7,0.6 -35,5.4 C 17.2,10.8 2.5,34 2.5,34 L 0,36.6 c 0,0 11.3,0.6 25.4,5.6 14.2,4.9 32.4,-3.7 40.4,-9.2 8.1,-5.6 30.6,-30.9 30.6,-30.9 0,0 -3.5,0.5 -9.7,0.5 -6.2,0 -14.2,0 -26.1,-1.9 z" />
      <path
         id="shape312"
         stroke-width="1"
         fill-rule="nonzero"
         transform="translate(237.2009,279.425)"
         stroke="#ffffff"
         fill="#ffffff"
         d="M 28.3,10.3 C 19.8,12.9 11,19.2 7.1,25 3.1,30.7 0.8,50.6 0.8,50.6 L 0,53.1 c 0,0 7.7,-3.2 18.4,-4.4 C 29.2,47.4 38.5,36.1 42,29.9 45.4,23.7 52.2,0 52.2,0 52.2,0 50.1,1.5 46,3.4 41.9,5.3 36.7,7.8 28.3,10.3 Z" />
      <path
         id="shape315"
         stroke-width="1"
         fill-rule="nonzero"
         transform="translate(564.5029,454.977)"
         stroke="#ffffff"
         fill="#ffffff"
         d="M 28.3,10.3 C 19.8,12.9 11,19.2 7.1,25 3.1,30.7 0.8,50.6 0.8,50.6 L 0,53.1 c 0,0 7.7,-3.2 18.4,-4.4 C 29.2,47.4 38.5,36.1 42,29.9 45.4,23.7 52.2,0 52.2,0 52.2,0 50.1,1.5 46,3.4 41.9,5.3 36.8,7.8 28.3,10.3 Z"
         style="display:inline" />
      <path
         id="shape318"
         stroke-width="0.863866"
         fill-rule="nonzero"
         stroke="#ffffff"
         fill="#ffffff"
         d="m 176.89705,392.98607 c 0,0 0.2494,2.3339 0.16627,6.28358 -0.0831,4.12921 -0.24941,9.24584 -1.6627,17.05544 -1.4133,7.8096 -0.0831,17.32474 2.66031,22.89019 2.66032,5.56546 16.37758,15.6192 16.37758,15.6192 l 1.57956,1.70554 c 0,0 0.58195,-7.36077 3.74107,-16.60661 3.24226,-9.06631 -1.57956,-21.18465 -4.82182,-26.48082 -3.15913,-5.29616 -18.04027,-20.46652 -18.04027,-20.46652 z" />
      <path
         id="shape321"
         stroke-width="1"
         fill-rule="nonzero"
         transform="translate(279.4677,125.2124)"
         stroke="#ffffff"
         fill="#ffffff"
         d="m 19.8,0 c 0,0 -0.7,2.4 -2.7,6.5 -2,4.1 -4.5,9.2 -9.6,16.5 -5.1,7.2 -7.9,17.6 -7.5,24.6 0.5,7 11,24 11,24 l 0.9,2.5 c 0,0 4,-7.3 11.7,-14.9 7.6,-7.7 7.8,-22.4 6.7,-29.4 C 29.2,22.7 19.8,0 19.8,0 Z" />
      <path
         id="shape324"
         stroke-width="1"
         fill-rule="nonzero"
         transform="translate(575.7204,71.7712)"
         stroke="#ffffff"
         fill="#ffffff"
         d="M 19,0 C 19,0 18.2,2.5 16.3,6.6 14.4,10.7 12,15.9 7.1,23.3 2.2,30.6 -0.5,41 0.1,48 0.7,55 11.5,71.8 11.5,71.8 l 1,2.4 c 0,0 3.8,-7.3 11.4,-15.1 7.6,-7.8 7.4,-22.4 6.2,-29.5 C 28.8,22.5 19,0 19,0 Z"
         style="display:inline" />
      <path
         id="shape327"
         stroke-width="1"
         fill-rule="nonzero"
         transform="translate(410.3461,256.5344)"
         stroke="#ffffff"
         fill="#ffffff"
         d="m 7.1,0 c 0,0 0,2.6 -0.8,7 C 5.6,11.5 4.8,17.1 2,25.5 -0.8,33.9 -0.5,44.7 2,51.3 4.4,57.8 19.5,71 19.5,71 l 1.6,2.1 c 0,0 1.7,-8 6.8,-17.7 5.1,-9.5 1,-23.6 -2.1,-30 C 22.7,19.1 7.1,0 7.1,0 Z"
         style="display:inline" />
      <path
         id="shape330"
         stroke-width="1"
         fill-rule="nonzero"
         transform="translate(372.8095,83.1703)"
         stroke="#ffffff"
         fill="#ffffff"
         d="m 0,0 c 0,0 0.5,2.5 0.9,7 0.4,4.6 0.7,10.2 0,19.1 -0.8,8.7 1.9,19.2 5.8,25.1 4,5.8 21.6,15.3 21.6,15.3 l 2,1.6 c 0,0 -0.1,-8.2 2.6,-18.8 C 35.7,38.8 28.5,26.1 24.1,20.5 19.6,15 0,0 0,0 Z"
         style="display:inline" />
      <path
         id="shape333"
         stroke-width="1"
         fill-rule="nonzero"
         transform="translate(313.5322,362.7236)"
         stroke="#ffffff"
         fill="#ffffff"
         d="M 59.2,7.8 C 51.7,0 37,-0.6 30,0.3 23,1.2 0,10.2 0,10.2 c 0,0 2.4,0.8 6.4,2.9 4,2.1 9.1,4.7 16.2,9.9 7.1,5.3 17.4,8.4 24.5,8.2 7,-0.3 24.2,-10.4 24.2,-10.4 l 2.5,-0.9 c 0,-0.1 -7.1,-4.3 -14.6,-12.1 z"
         style="display:inline" />
      <path
         id="shape336"
         stroke-width="1"
         fill-rule="nonzero"
         transform="translate(332.2103,421.5993)"
         stroke="#ffffff"
         fill="#ffffff"
         d="m 20.1,0 c 0,0 -4,4.6 -10.7,8.8 -6.6,4.3 -9.1,14.8 -9.4,20 -0.3,5.2 2.9,23 2.9,23 0,0 0.9,-1.6 3,-4.2 C 8,45 10.6,41.7 15.3,37.3 20.1,32.9 23.8,25.9 24.5,20.8 25.3,15.7 20.4,1.9 20.4,1.9 Z"
         style="display:inline" />
      <path
         id="shape339"
         stroke-width="1"
         fill-rule="nonzero"
         transform="translate(240.2102,404.374)"
         stroke="#ffffff"
         fill="#ffffff"
         d="M 29.1,1 C 22.2,2.5 0,13.3 0,13.3 c 0,0 2.5,0.6 6.7,2.4 4.2,1.7 9.4,3.9 16.9,8.5 7.5,4.7 18.1,7 25,6.1 C 55.5,29.4 71.9,18 71.9,18 l 2.3,-1.1 c 0,0 -7.4,-3.6 -15.6,-10.8 C 50.6,-1.2 36,-0.6 29.1,1 Z"
         style="display:inline" />
      <path
         id="shape342"
         stroke-width="1"
         fill-rule="nonzero"
         transform="translate(178.6531,58.7302)"
         stroke="#ffffff"
         fill="#ffffff"
         d="m 0,0 c 0,0 0.7,2.5 1.5,6.9 0.7,4.5 1.6,10.2 1.6,19 0,8.8 3.6,19.1 7.9,24.4 4.4,5.5 22.7,13.4 22.7,13.4 l 2.2,1.5 C 35.9,65.2 35.1,57 37,46.3 38.9,35.7 30.7,23.5 25.7,18.4 20.8,13.2 0,0 0,0 Z"
         style="display:inline" />
      <path
         id="shape345"
         stroke-width="1"
         fill-rule="nonzero"
         transform="translate(477.5933,257.1955)"
         stroke="#ffffff"
         fill="#ffffff"
         d="M 44,0.4 C 35.2,-0.9 24.6,1.1 18.5,4.5 12.4,8 1.8,25 1.8,25 L 0,26.9 c 0,0 8.2,0.4 18.5,3.9 10.3,3.6 23.5,-2.7 29.4,-6.8 5.8,-4.1 22,-22.7 22,-22.7 0,0 -2.4,0.4 -7,0.4 C 58.5,1.7 52.7,1.8 44,0.4 Z"
         style="display:inline" />
      <path
         id="shape348"
         stroke-width="1"
         fill-rule="nonzero"
         transform="translate(97.7626,283.8931)"
         stroke="#ffffff"
         fill="#ffffff"
         d="m 0,0 c 0,0 0.5,2.5 0.9,7 0.4,4.6 0.8,10.2 0.1,19.1 -0.7,8.8 2.1,19.2 6,25 3.9,5.7 21.6,15.1 21.6,15.1 l 2,1.6 c 0,0 -0.1,-8.2 2.6,-18.7 C 35.9,38.6 28.6,25.8 24.2,20.3 19.6,14.8 0,0 0,0 Z"
         style="display:inline" />
      <path
         id="shape351"
         stroke-width="1"
         fill-rule="nonzero"
         transform="translate(87.0918,471.0277)"
         stroke="#ffffff"
         fill="#ffffff"
         d="M 30.5,8.5 C 24.1,5.4 0,0 0,0 c 0,0 1.6,2 3.7,6 2.2,3.9 5.1,9 8.1,17.3 3,8.3 9.8,16.7 15.7,20.4 6.1,3.6 25.9,4.8 25.9,4.8 L 56,49.2 C 56,49.2 52.4,41.8 50.5,31 48.6,20.2 36.8,11.6 30.5,8.5 Z"
         style="display:inline" />
      <path
         id="shape354"
         stroke-width="1"
         fill-rule="nonzero"
         transform="translate(531.8859,361.6838)"
         stroke="#ffffff"
         fill="#ffffff"
         d="m 8.7,0 c 0,0 -0.2,2.6 -1,7 -0.9,4.5 -2,10.1 -5.1,18.4 -3.1,8.3 -3.4,19 -1.2,25.7 C 3.6,57.7 18,71.6 18,71.6 l 1.6,2.1 c 0,0 2.1,-8 7.6,-17.3 C 32.8,47 29.3,32.7 26.4,26.3 23.5,19.6 8.7,0 8.7,0 Z"
         style="display:inline" />
      <path
         id="shape357"
         stroke-width="1"
         fill-rule="nonzero"
         transform="translate(591.9335,281.4313)"
         stroke="#ffffff"
         fill="#ffffff"
         d="m 28.5,5.4 c -3.1,3.4 -7,7.5 -13.9,13 C 7.7,23.9 1.8,33 0.3,39.9 c -1.6,6.8 3.5,26 3.5,26 L 4,68.6 c 0,0 6,-5.8 15.5,-10.9 9.6,-5.1 14,-19.1 15,-26.1 C 35.5,24.5 32.9,0 32.9,0 c 0,0 -1.4,2 -4.4,5.4 z"
         style="display:inline" />
      <path
         id="shape360"
         stroke-width="1"
         fill-rule="nonzero"
         transform="translate(653.6019,274.135)"
         stroke="#ffffff"
         fill="#ffffff"
         d="M 28.3,10.4 C 19.8,12.9 11,19.2 7.1,25 3.1,30.7 0.8,50.6 0.8,50.6 L 0,53.1 c 0,0 7.7,-3.2 18.4,-4.4 C 29.2,47.4 38.5,36.1 42,29.9 45.4,23.7 52.2,0 52.2,0 c 0,0 -2.1,1.5 -6.2,3.4 -4,2 -9.2,4.4 -17.7,7 z"
         style="display:inline" />
      <path
         id="shape363"
         stroke-width="1"
         fill-rule="nonzero"
         transform="translate(676.127,488.3543)"
         stroke="#ffffff"
         fill="#ffffff"
         d="M 39.1,3.2 C 30.3,3.2 20.2,6.8 14.7,11.3 9.2,15.7 1.5,34.1 1.5,34.1 L 0,36.3 c 0,0 8.2,-0.9 19,0.9 C 29.7,39 41.8,30.7 46.9,25.8 52,20.9 65.1,0 65.1,0 65.1,0 62.7,0.7 58.2,1.6 53.6,2.2 48,3.1 39.1,3.2 Z"
         style="display:inline" />
      <path
         id="shape366"
         stroke-width="1"
         fill-rule="nonzero"
         transform="translate(719.8899,307.8774)"
         stroke="#ffffff"
         fill="#ffffff"
         d="M 19.8,14.7 C 12,18.8 4.6,26.6 1.7,33 -1.1,39.4 0.4,59.4 0.4,59.4 L 0.1,62 C 0.1,62 7,57.5 17.3,54.2 27.7,50.9 34.6,38 36.9,31.3 39.1,24.5 41.2,0 41.2,0 c 0,0 -1.8,1.8 -5.4,4.5 -3.5,2.6 -8.2,6.1 -16,10.2 z"
         style="display:inline" />
      <path
         id="shape369"
         stroke-width="1"
         fill-rule="nonzero"
         transform="translate(630.5471,52.8937)"
         stroke="#ffffff"
         fill="#ffffff"
         d="m 19.6,14.8 c -7.9,4.1 -15.1,12 -18,18.4 -2.7,6.5 -1.2,26.4 -1.2,26.4 l -0.2,2.6 c 0,0 6.8,-4.6 17.2,-7.9 C 27.8,51 34.6,38 36.8,31.3 39,24.5 41,0 41,0 41,0 39.2,1.8 35.6,4.6 32,7.2 27.4,10.7 19.6,14.8 Z"
         style="display:inline" />
      <path
         id="shape372"
         stroke-width="1"
         fill-rule="nonzero"
         transform="translate(410.624)"
         stroke="#ffffff"
         fill="#ffffff"
         d="M 25.7,5.7 C 22.8,9.3 19.3,13.8 12.8,19.8 6.2,25.7 1.2,35.3 0.1,42.2 -1,49.2 5.6,68 5.6,68 L 6,70.6 c 0,0 5.4,-6.2 14.6,-12.1 9.3,-5.8 12.5,-20 13,-27.1 C 34,24.3 29.8,0 29.8,0 c 0,0 -1.4,2.2 -4.1,5.7 z"
         style="display:inline" />
      <path
         id="shape375"
         stroke-width="1"
         fill-rule="nonzero"
         transform="translate(638.8361,250.7894)"
         stroke="#ffffff"
         fill="#ffffff"
         d="M 16.9,3.7 C 15,6.1 12.7,9 8.4,12.9 4.1,16.8 0.8,23 0,27.5 -0.6,32.1 3.6,44.4 3.6,44.4 l 0.3,1.7 c 0,0 3.6,-4 9.6,-7.8 6,-3.8 8.2,-13.1 8.5,-17.8 C 22.2,15.9 19.5,0 19.5,0 c 0,0 -0.8,1.5 -2.6,3.7 z"
         style="display:inline" />
      <path
         id="shape378"
         stroke-width="1"
         fill-rule="nonzero"
         transform="translate(614.05281,26.8117)"
         stroke="#ffffff"
         fill="#ffffff"
         d="M 7.2,0 C 7.2,0 7,1.6 6.3,4.6 5.5,7.5 4.6,11 2.2,16.3 0,21.6 -0.6,28.6 0.6,33.1 c 1.2,4.4 10.1,14 10.1,14 l 0.9,1.4 c 0,0 1.7,-5.1 5.6,-11 3.9,-5.9 2.1,-15.3 0.6,-19.7 C 16.1,13.3 7.2,0 7.2,0 Z"
         style="display:inline" />
      <path
         id="shape381"
         stroke-width="1"
         fill-rule="nonzero"
         transform="translate(325.8514,119.3754)"
         stroke="#ffffff"
         fill="#ffffff"
         d="M 16.9,3.7 C 15,6.1 12.7,9 8.4,12.9 4.1,16.8 0.8,23 0,27.5 -0.6,32.1 3.6,44.4 3.6,44.4 l 0.3,1.7 c 0,0 3.6,-4 9.6,-7.8 6,-3.8 8.2,-13.1 8.5,-17.8 C 22.2,15.9 19.4,0 19.4,0 c 0,0 -0.7,1.5 -2.5,3.7 z"
         style="display:inline" />
      <path
         id="shape384"
         stroke-width="1"
         fill-rule="nonzero"
         transform="translate(220.3177,32.557)"
         stroke="#ffffff"
         fill="#ffffff"
         d="m 13.5,0 c 0,0 -0.5,1.6 -1.8,4.2 -1.4,2.6 -3,6 -6.5,10.7 -3.4,4.6 -5.4,11.4 -5.2,16 0.2,4.6 6.9,15.8 6.9,15.8 l 0.6,1.6 c 0,0 2.7,-4.6 7.8,-9.5 5.1,-5 5.4,-14.5 4.8,-19.2 C 19.4,15 13.5,0 13.5,0 Z"
         style="display:inline" />
      <path
         id="shape387"
         stroke-width="1"
         fill-rule="nonzero"
         transform="translate(257.993,236.267)"
         stroke="#ffffff"
         fill="#ffffff"
         d="M 16.1,3.4 C 12,5.6 0,16.3 0,16.3 c 0,0 1.6,0 4.6,0.2 2.9,0.4 6.6,0.8 12.2,2.5 5.5,1.6 12.6,1.2 16.9,-0.6 C 37.8,16.7 46.1,6.6 46.1,6.6 l 1.3,-1.1 c 0,0 -5.3,-0.9 -11.7,-4.1 -6.4,-3.2 -15.5,-0.2 -19.6,2 z"
         style="display:inline" />
      <path
         id="shape390"
         stroke-width="1"
         fill-rule="nonzero"
         transform="translate(298.2112,313.9877)"
         stroke="#ffffff"
         fill="#ffffff"
         d="M 20,5.3 C 15.8,3.3 0,0 0,0 0,0 1,1.3 2.5,3.8 3.9,6.4 5.8,9.7 7.8,15 c 2,5.4 6.6,10.8 10.6,13.2 3.9,2.3 17,2.9 17,2.9 l 1.6,0.4 c 0,0 -2.4,-4.9 -3.7,-11.9 C 32,12.8 24.2,7.3 20,5.3 Z"
         style="display:inline" />
      <path
         id="shape393"
         stroke-width="1"
         fill-rule="nonzero"
         transform="translate(26.4469,330.6978)"
         stroke="#ffffff"
         fill="#ffffff"
         d="M 20.6,0.2 C 16,-0.5 0,1 0,1 c 0,0 1.4,0.9 3.6,3 2.1,2 4.9,4.6 8.3,9.2 3.6,4.6 9.5,8.4 14,9.5 4.5,1.1 17.1,-2.2 17.1,-2.2 l 1.8,-0.1 c 0,0 -3.8,-3.9 -7,-10.2 C 34.3,3.8 25.2,0.9 20.6,0.2 Z"
         style="display:inline" />
      <path
         id="shape396"
         stroke-width="1"
         fill-rule="nonzero"
         transform="translate(41.4942,466.3766)"
         stroke="#ffffff"
         fill="#ffffff"
         d="m 0,0 c 0,0 0.5,1.6 0.7,4.6 0.4,2.9 0.8,6.6 0.5,12.4 -0.3,5.7 1.7,12.5 4.5,16.2 2.7,3.7 14.4,9.5 14.4,9.5 l 1.3,1 c 0,0 -0.2,-5.4 1.3,-12.3 1.6,-7 -3.5,-15.2 -6.5,-18.6 C 13.1,9.2 0,0 0,0 Z"
         style="display:inline" />
      <path
         id="shape399"
         stroke-width="1"
         fill-rule="nonzero"
         transform="translate(540.7918,225.366)"
         stroke="#ffffff"
         fill="#ffffff"
         d="M 42.5,2.8 C 39.6,2.5 35.8,2.3 30.2,0.8 24.6,-0.7 17.5,0 13.4,1.9 9.2,3.8 1.3,14.2 1.3,14.2 L 0,15.4 c 0,0 5.4,0.8 11.9,3.6 6.4,3 15.5,-0.3 19.5,-2.7 4,-2.3 15.7,-13.4 15.7,-13.4 0,0 -1.7,0.2 -4.6,-0.1 z"
         style="display:inline" />
      <path
         id="shape402"
         stroke-width="1"
         fill-rule="nonzero"
         transform="translate(772.0996,480.4207)"
         stroke="#ffffff"
         fill="#ffffff"
         d="M 22.7,3 C 20.3,4.8 17.4,7.2 12.4,9.9 7.4,12.8 2.6,18.1 0.9,22.3 -0.9,26.5 0.5,39.5 0.5,39.5 l -0.2,1.7 c 0,0 4.4,-3.1 11.2,-5.4 C 18.2,33.5 22.5,25 23.9,20.5 25.2,16.1 26.1,0 26.1,0 26.1,0 25,1.2 22.7,3 Z"
         style="display:inline" />
      <path
         id="shape405"
         stroke-width="1"
         fill-rule="nonzero"
         transform="translate(666.1871,547.6454)"
         stroke="#ffffff"
         fill="#ffffff"
         d="M 39.1,21.6 C 37.2,19.3 34.7,16.5 31.7,11.6 28.7,6.6 23.3,2.2 19,0.6 14.7,-0.9 1.7,0.9 1.7,0.9 L 0,0.8 c 0,0 3.3,4.3 5.8,11 2.6,6.6 11.3,10.5 15.8,11.7 4.5,1.2 20.6,1.6 20.6,1.6 0,0 -1.2,-1.2 -3.1,-3.5 z"
         style="display:inline" />
      <path
         id="shape408"
         stroke-width="1"
         fill-rule="nonzero"
         transform="translate(574.7169,425.2474)"
         stroke="#ffffff"
         fill="#ffffff"
         d="M 23.5,3.6 C 17.8,4.1 11.4,7.1 8.1,10.3 4.8,13.5 0.8,26 0.8,26 L 0,27.5 c 0,0 5.3,-1.1 12.4,-0.5 7.1,0.5 14.4,-5.6 17.4,-9.1 C 32.8,14.3 40.1,0 40.1,0 40.1,0 38.6,0.6 35.7,1.4 32.9,2.1 29.3,3 23.5,3.6 Z"
         style="display:inline" />
      <path
         id="shape411"
         stroke-width="1"
         fill-rule="nonzero"
         transform="translate(769.5117,349.7263)"
         stroke="#ffffff"
         fill="#ffffff"
         d="M 33.6,5.5 C 28.9,2 22.3,-0.2 17.6,0 13,0.2 1.6,6.7 1.6,6.7 L 0,7.2 c 0,0 4.7,2.8 9.5,8 4.8,5.2 14.4,5.7 19,5.1 4.7,-0.5 19.7,-6.2 19.7,-6.2 0,0 -1.5,-0.5 -4.2,-1.9 C 41.5,10.7 38.2,8.9 33.6,5.5 Z"
         style="display:inline" />
      <path
         id="shape414"
         stroke-width="1"
         fill-rule="nonzero"
         transform="translate(425.6117,177.0111)"
         stroke="#ffffff"
         fill="#ffffff"
         d="M 24.4,3 C 18.7,3.3 12.1,6 8.8,9.1 5.4,12.2 0.9,24.4 0.9,24.4 L 0,25.9 c 0,0 5.3,-0.8 12.4,0 7,0.8 14.7,-5 17.8,-8.4 C 33.4,14.1 41.2,0 41.2,0 41.2,0 39.7,0.5 36.8,1.2 33.9,1.9 30.3,2.7 24.4,3 Z"
         style="display:inline" />
      <path
         id="shape417"
         stroke-width="1"
         fill-rule="nonzero"
         transform="translate(290.368,450.4174)"
         stroke="#ffffff"
         fill="#ffffff"
         d="M 18.1,4.4 C 11.1,6 6,14.1 4.3,18.4 2.5,22.7 0,38.7 0,38.7 0,38.7 1.3,37.6 3.7,35.9 6.2,34.3 9.4,32.3 14.7,30 20,27.7 25.2,22.9 27.3,18.8 29.4,14.7 29.4,1.6 29.4,1.6 L 29.6,0 C 29.7,0 25,2.7 18.1,4.4 Z"
         style="display:inline" />
      <path
         id="shape420"
         stroke-width="1"
         fill-rule="nonzero"
         transform="translate(253.1598,349.59132)"
         stroke="#ffffff"
         fill="#ffffff"
         d="M 13.9,0.7 C 10.5,1.5 0,7.2 0,7.2 c 0,0 1.2,0.2 3.3,1 2.1,0.7 4.6,1.7 8.4,3.8 3.7,2.1 8.8,3 12.2,2.6 3.4,-0.6 11,-6.4 11,-6.4 L 36,7.6 c 0,0 -3.6,-1.6 -7.7,-5 -4,-3.4 -11.2,-2.8 -14.4,-1.9 z"
         style="display:inline" />
      <path
         id="shape423"
         stroke-width="1"
         fill-rule="nonzero"
         transform="translate(207.81916,252.613)"
         stroke="#ffffff"
         fill="#ffffff"
         d="m 3.8,0 c 0,0 0,1.6 -0.3,4.6 -0.4,2.9 -0.8,6.6 -2.5,12.2 -1.6,5.5 -1.2,12.6 0.6,16.9 1.7,4.1 11.8,12.4 11.8,12.4 l 1.1,1.3 c 0,0 1,-5.3 4.1,-11.7 3.1,-6.3 0.2,-15.5 -2,-19.6 C 14.5,12.1 3.8,0 3.8,0 Z"
         style="display:inline" />
      <path
         id="shape426"
         stroke-width="1"
         fill-rule="nonzero"
         transform="translate(135.0612,543.2545)"
         stroke="#ffffff"
         fill="#ffffff"
         d="M 25.6,0 C 25.6,0 21.2,3.1 14.5,5.5 7.8,7.8 3.6,16.4 2.2,20.9 0.8,25.4 0,41.4 0,41.4 c 0,0 1.1,-1.2 3.5,-3.1 2.2,-1.8 5.3,-4.2 10.3,-7 5,-2.8 9.6,-8.1 11.4,-12.4 1.7,-4.3 0.3,-17.3 0.3,-17.3 z"
         style="display:inline" />
    </g>
    <g
       id="g2"
       transform="matrix(0.9315079,0,0,0.93074434,-63.511265,-368.4198)"
       style="display:inline">
      <path
         id="shape3"
         stroke-width="1.07397"
         fill-rule="nonzero"
         stroke="#ffffff"
         fill="#ffffff"
         d="m 549.56406,786.42735 c -9.66176,-15.68637 -22.7588,-32.98436 -36.1779,-50.81954 -13.2044,-17.83519 -26.6235,-36.10014 -36.49996,-53.61301 -7.19264,-12.57058 -15.35146,-22.24026 -24.15439,-29.65368 -13.20439,-11.17386 -27.80438,-17.40543 -42.83377,-23.42212 -15.13675,-5.90925 -31.02497,-11.71106 -47.87936,-21.59562 -9.87646,-5.69436 -17.2838,-13.32267 -23.08086,-22.02538 -8.58822,-12.78547 -17.20561,-26.65903 -19.56737,-39.12217 -1.82279,-19.54909 -0.31899,-29.23469 -4.23864,-42.7061 -6.12034,4.40006 -6.14704,19.00026 -6.91904,28.44177 -0.15297,1.87076 0.88854,25.56166 3.24273,30.93135 4.12333,12.11965 10.73714,21.55525 17.60772,31.65469 6.87058,10.20689 18.82864,19.76913 30.85215,26.75278 24.47644,14.28964 40.32091,20.02438 58.24884,28.29733 9.01763,4.08276 17.06909,8.59527 24.36909,14.82685 7.51469,6.33901 14.17057,14.18219 20.71909,25.46349 76.85677,94.88634 94.43067,173.10124 65.91463,294.38803 14.27793,-19.55424 23.40292,-42.65403 29.30732,-65.64638 5.79705,-23.09979 8.15882,-46.19958 8.15882,-65.75382 0,-14.71941 -1.28824,-27.28999 -3.65,-36.85223 -1.93235,-9.34736 -6.97793,-19.12448 -13.4191,-29.54624 z"
         style="display:inline" />
      <path
         id="shape4"
         stroke-width="1.07397"
         fill-rule="nonzero"
         stroke="#ffffff"
         fill="#ffffff"
         d="m 468.90989,698.42251 c 0,0.10744 5.6897,14.1822 12.56028,29.65368 3.54264,7.73575 7.40734,15.90126 11.05734,22.88491 1.82499,3.43811 3.54264,6.66134 5.36764,9.34736 1.71764,2.79346 3.43529,5.15716 5.36764,7.19854 2.0397,2.04138 4.83088,5.37204 7.7294,9.4548 8.69558,12.3557 18.8941,31.8025 23.72497,47.91864 1.28824,4.72739 2.25441,12.57058 2.25441,21.70306 0.65107,34.0497 -4.03824,47.5413 -21.89997,74.77885 l -44.87348,71.23331 c -9.98381,10.52924 -20.50439,22.13284 -30.4882,34.70344 -16.21028,20.6286 -32.63526,43.621 -44.98083,65.5389 -6.11911,11.0664 -11.3794,21.8105 -15.13675,31.91 -3.75735,10.0994 -6.01176,19.6616 -6.01176,28.5792 -1.4569,21.7178 -6.36431,39.6277 -19.55712,63.47 -12.48985,16.0837 -11.55475,18.9236 -55.50439,59.1234 78.18693,0.4778 155.29038,0.3612 233.00285,-0.1689 -26.05531,-18.4036 -40.39,-30.8848 -54.02381,-42.8108 -6.76323,-5.8018 -13.4191,-13.3226 -18.24998,-22.1328 -4.93823,-8.8101 -8.05146,-19.017 -8.05146,-31.2653 0,-2.5786 0.10735,-5.2646 0.42941,-8.0581 1.71765,-14.6119 5.90441,-31.9099 11.59411,-49.7451 45.80487,-110.7728 180.12769,-251.78511 5.6897,-423.31709 z"
         style="display:inline" />
      <path
         id="shape5"
         stroke-width="1.07397"
         fill-rule="nonzero"
         stroke="#ffffff"
         fill="#ffffff"
         d="m 541.11597,463.27147 c -3.99754,-0.0102 -25.65693,29.91853 -28.12605,46.46442 -2.68382,16.76078 -5.26028,38.14152 -5.26028,58.01809 0,34.43213 -14.42705,64.55175 -20.82645,73.91933 -5.99264,8.62149 -16.14197,22.57271 -28.87791,39.4308 l 16.38342,26.09217 13.09704,-8.59527 -8.05146,-12.14082 c -3.66724,2.17584 9.40881,-14.31226 25.59154,-44.67944 9.87645,-19.23192 18.35733,-46.19958 18.35733,-74.02677 0,-18.58728 -2.29926,-42.87758 0.16985,-58.99371 1.95159,-14.54608 14.71476,-29.52226 17.54297,-45.4888 z"
         style="display:inline" />
      <path
         id="shape7"
         stroke-width="1.07397"
         fill-rule="nonzero"
         stroke="#ffffff"
         fill="#ffffff"
         d="m 725.87352,477.75471 c -1.5205,-2.80099 10.80347,39.24077 -1.97987,57.57102 -1.95312,2.80062 -3.31874,6.94335 -43.17869,53.96048 -22.11468,17.40542 -52.71023,40.39777 -79.01167,62.74548 -17.53787,14.96257 -36.09573,32.18325 -46.37642,47.27399 -10.29981,17.07106 -13.56385,37.63986 -19.21616,56.62135 -1.82499,6.01669 -3.43529,11.28129 -4.50881,14.93428 l 14.31783,12.51924 c 0,0 5.55234,-37.00665 13.6038,-66.55289 3.40848,-15.12803 15.8191,-26.18461 26.50624,-36.64646 28.4485,-27.39743 71.92639,-59.62969 101.23371,-82.72948 23.29557,-18.3724 36.28526,-43.62101 43.4779,-64.24966 7.29999,-20.52121 2.12331,-37.83569 2.12331,-38.15801 z"
         style="display:inline" />
      <path
         id="shape9"
         stroke-width="1.07397"
         fill-rule="nonzero"
         stroke="#ffffff"
         fill="#ffffff"
         d="m 834.17717,809.40071 c -6.76323,5.90925 -14.81186,10.80928 -18.99862,17.68549 -2.89852,4.61996 -6.65587,11.38874 -11.37939,19.44681 -6.97794,11.92593 -15.88822,26.5379 -25.65733,39.75312 -9.66175,13.32268 -20.39703,25.24861 -30.38085,31.69507 -6.76322,4.40507 -17.49851,9.56224 -30.38084,14.93428 -38.86173,15.68637 -82.34356,24.29154 -123.6744,33.74634 -57.21905,13.10778 -100.37094,45.65248 -101.12241,46.40458 l 10.52058,11.6036 c -39.56433,63.376 40.00962,-23.6241 94.14447,-42.75158 28.01909,-6.44645 48.20537,-8.06796 80.73327,-18.48973 16.31763,-5.15716 31.88379,-10.63664 45.30289,-16.00869 13.4191,-5.58693 24.69115,-10.95897 33.06467,-16.33101 8.37352,-5.58693 16.21027,-13.21523 23.72497,-21.91795 11.05734,-12.8929 21.04115,-28.14951 29.41467,-41.90194 8.37352,-13.53755 15.0294,-25.67838 18.8941,-32.23227 7.01466,-8.27308 23.69132,-25.79506 34.05103,-32.9955 9.8346,-5.99881 37.93207,-7.11732 33.82576,-8.65834 -9.89581,-3.38978 -12.13621,-2.10616 -25.44714,-2.55987 -12.98123,2.02006 -25.22007,8.8051 -36.63543,18.57759 z"
         style="display:inline" />
      <path
         id="shape12"
         stroke-width="1.07397"
         fill-rule="nonzero"
         stroke="#ffffff"
         fill="#ffffff"
         d="m 752.17957,751.85544 c -0.32206,0.10744 -14.37084,4.61308 -30.1517,16.32414 -15.67351,11.49617 -33.81614,29.76113 -42.51172,56.08414 -8.58822,25.57094 -11.05734,49.42281 -13.2044,68.11753 -1.07352,9.4548 -2.0397,17.51286 -3.43529,23.85188 -1.50294,6.33901 -3.43529,10.63664 -5.79705,12.8929 -3.11323,3.11579 -7.83675,6.98366 -12.98969,10.85153 -7.83676,5.90925 -16.96175,11.92594 -24.04703,16.43846 -3.54264,2.25626 -6.54852,4.08275 -8.69558,5.47948 -1.07353,0.64465 -1.93235,1.18185 -2.57647,1.50418 -0.53676,0.42976 -0.85882,0.5372 -0.85882,0.5372 l 5.36764,9.02504 c 0,0 9.23234,-5.47949 20.18233,-12.78547 5.47499,-3.54555 11.3794,-7.6283 16.85439,-11.71106 5.475,-4.08275 10.41323,-8.1655 14.17058,-11.81849 4.61617,-4.61996 6.87058,-10.95898 8.48087,-18.05007 2.46911,-10.85153 3.43529,-24.28165 5.47499,-39.86057 1.93235,-15.47149 4.83088,-32.87692 10.94999,-51.14187 7.83676,-23.52955 24.26174,-40.18289 38.96907,-51.03442 7.3,-5.37205 13.21299,-10.2628 18.15122,-12.84138 7.5414,-5.40483 18.27848,-14.48499 16.67266,-14.16329 z"
         style="display:inline" />
      <path
         id="shape16"
         stroke-width="1.07397"
         fill-rule="nonzero"
         stroke="#ffffff"
         fill="#ffffff"
         d="m 876.33094,951.63729 c -2.57647,3.11579 -9.54348,7.18058 -20.38612,12.44518 -7.7294,3.86787 -16.74704,5.47949 -26.19408,5.47949 -19.96763,0 -41.33084,-7.0911 -55.71612,-11.49618 -5.9044,-1.82649 -14.06322,-3.11578 -23.40291,-4.19019 -27.80438,-3.33067 -64.84111,-4.61996 -64.94846,-4.61996 l -0.42941,10.31432 c 0,0 0.96618,0 2.79117,0.10744 6.54853,0.32233 22.86615,1.07441 39.93525,2.3637 8.48088,0.75209 17.0691,1.61162 24.69115,2.57859 7.62205,0.96696 14.27793,2.14881 18.35733,3.4381 14.27793,4.29764 36.49996,11.8185 58.722,11.8185 10.52057,0 21.04115,-1.61161 30.7029,-6.44645 11.59411,-5.69437 18.35733,-10.95897 22.32939,-15.68637 4.07941,-4.7274 5.15293,-8.9176 5.15293,-11.60362 0,-1.28929 -1.31926,-6.61124 -2.06416,-6.92753 -1.08643,-0.93516 -2.69604,5.79794 -9.54086,12.42498 z"
         style="display:inline" />
      <path
         id="shape18"
         stroke-width="1.07397"
         fill-rule="nonzero"
         stroke="#ffffff"
         fill="#ffffff"
         d="m 389.70039,930.78267 c -23.93968,-11.49617 -50.51458,-14.67202 -69.08662,-18.86222 -18.67939,-4.19019 -34.13819,-7.73574 -46.05436,-15.36405 -5.58234,-3.54555 -10.62793,-9.45479 -15.4588,-17.0831 -7.29999,-11.49617 -13.74116,-26.5379 -21.14851,-42.22427 -7.40734,-15.68637 -15.88822,-31.8025 -27.37497,-45.34005 -7.83675,-9.23992 -15.56616,-15.25661 -22.54409,-18.80216 -7.08529,-3.65299 -13.74116,-4.94228 -19.21615,-4.94228 -10.62793,0 -17.17646,4.61996 -17.71322,5.04972 -5.32761,3.28852 -11.51327,7.48774 -9.61774,10.41959 1.42083,2.40105 23.77323,-6.75428 30.55616,-6.14955 3.95636,0.35272 5.47037,2.06897 11.26743,4.96988 5.6897,3.00834 12.23822,7.95062 19.43086,16.33101 13.95586,16.43846 23.61762,38.24896 33.06466,58.34041 4.72353,10.09944 9.23235,19.66168 14.59999,28.04207 5.26029,8.27295 11.16469,15.47149 18.67939,20.30633 14.17057,9.02503 30.81026,12.46314 49.27494,16.76078 18.46469,4.19019 39.07643,9.02503 61.83523,19.984 22.32938,10.63665 41.97495,29.00904 55.82346,44.58797 6.97794,7.84319 12.45293,15.04175 16.21028,20.19885 2.27351,3.0339 5.67296,8.1488 5.6897,8.1655 l 20.14775,-17.35586 c -1.52566,-3.2234 -14.80234,-9.76075 -29.29497,-25.98433 -14.38528,-16.43845 -34.70133,-29.33718 -59.07042,-41.04824 z"
         style="display:inline" />
      <path
         id="shape20"
         stroke-width="1.07397"
         fill-rule="nonzero"
         stroke="#ffffff"
         fill="#ffffff"
         d="m 345.97481,930.90515 c -16.10293,1.71905 -35.85584,4.94228 -51.09994,10.63665 -28.34115,10.74408 -61.19111,19.4468 -90.92784,19.4468 -14.70734,0 -25.97939,-2.90091 -33.60144,-5.80181 -3.74725,-1.35428 -7.81397,-3.13637 -11.16469,-5.37205 l -15.89433,-15.73332 c -1.91042,2.88865 4.22041,13.88571 9.77522,24.11371 5.5306,3.97378 18.8941,13.21523 50.99259,13.21523 31.77643,0 65.37787,-9.23991 94.57783,-20.19888 13.63381,-5.15717 32.95732,-8.38039 48.52348,-9.99201 7.06386,-0.77475 16.00639,-3.32559 31.80438,-0.0414 l -4.21471,-12.42177 c -0.10735,0 -12.56028,0.32232 -28.77055,2.14882 z"
         style="display:inline" />
      <path
         id="shape22"
         stroke-width="1.07397"
         fill-rule="nonzero"
         stroke="#ffffff"
         fill="#ffffff"
         d="m 310.45362,894.97954 c -4.72352,-5.15716 -8.58717,-9.61033 -8.69452,-14.87494 0,-5.90925 0.22744,-12.84481 3.34067,-19.82847 3.00588,-7.0911 5.33256,-14.67131 8.01638,-22.19217 5.36764,-14.28964 9.44705,-34.27365 9.44705,-52.5386 0,-9.13247 -0.96618,-17.83518 -3.65,-25.35605 -1.61029,-4.29763 -2.14706,-9.23991 -2.14706,-14.18219 0,-7.0911 1.39559,-14.28964 2.57647,-19.66169 0.75147,-2.68602 1.39559,-4.83484 1.93235,-6.33901 0.51357,-1.37065 2.11997,-13.06695 1.07101,-12.3217 l -6.08293,7.50767 c -1.57722,1.92001 -9.91012,13.83907 -10.01747,30.70729 0,5.8018 0.75147,11.92593 2.79117,17.72774 2.0397,5.80181 3.00588,13.43011 3.00588,21.8105 0,16.65334 -3.8647,35.88526 -8.80293,48.88561 -2.46912,6.55389 -6.22646,13.75243 -9.44705,21.38073 -3.32794,7.52087 -6.11911,15.47149 -6.11911,23.74444 0,7.6283 2.68382,15.47149 9.01764,22.34771 18.24998,19.66168 30.3711,21.53823 31.44462,21.86055 0.8866,-3.36909 1.38918,-5.19523 2.37152,-8.53788 22.54636,5.75882 -3.95077,-2.62668 -20.05369,-20.13954 z"
         style="display:inline" />
      <path
         id="shape24"
         stroke-width="1.07397"
         fill-rule="nonzero"
         stroke="#ffffff"
         fill="#ffffff"
         d="m 539.1328,876.02596 c -2.68382,-11.2813 -9.01764,-26.75279 -17.2838,-42.22427 -8.26617,-15.47149 -18.14263,-30.62066 -28.23379,-40.93498 -7.94411,-7.95063 -18.46469,-13.21523 -29.52203,-16.5459 -11.16469,-3.33067 -23.08086,-4.7274 -34.3529,-4.7274 -7.72941,0 -15.2441,0.64465 -21.89998,1.8265 -13.63381,2.47114 -27.48232,9.66968 -38.0029,16.22357 -10.62793,6.44645 -15.02765,8.08016 -18.03527,12.46314 l -9.49171,23.0551 c -3.0619,6.58274 19.31642,-22.60432 33.4618,-29.84404 9.98021,-5.10796 23.3725,-9.75695 34.00043,-11.58345 6.01176,-1.07441 12.88234,-1.61161 20.18233,-1.61161 10.41323,0 21.36321,1.18185 31.34703,4.29763 9.98381,2.90091 18.89409,7.52087 25.12056,13.85988 9.01763,8.91759 15.59678,23.63699 23.43354,38.46384 7.83676,14.7194 20.01372,54.37305 22.26813,64.15018 l 14.84532,3.8599 c 0,0 -0.21471,-0.5372 -0.53677,-1.8265 -1.07353,-3.76043 -3.64999,-13.32267 -7.29999,-28.90159 z"
         style="display:inline" />
      <path
         id="shape26"
         stroke-width="1.07397"
         fill-rule="nonzero"
         stroke="#ffffff"
         fill="#ffffff"
         d="m 438.42352,838.81767 c -8.26617,3.22323 -15.67352,8.27295 -23.72498,14.61196 -8.26617,6.23157 -17.39115,13.75243 -29.41467,22.02538 -2.35392,1.61965 -22.41098,14.96714 -32.05803,6.38496 -7.23734,-7.88107 -9.94739,-21.00104 -10.00451,-19.05155 l -0.0155,10.94595 c 3.91498,11.96451 7.7296,17.17677 19.73381,18.02145 14.93708,1.05105 19.47697,-2.01088 28.24861,-7.81298 16.53234,-11.28129 27.80438,-21.27329 37.35879,-27.93463 9.58915,-6.61129 17.69943,-10.09944 28.12643,-10.09944 21.1496,0 59.0895,3.81336 64.73376,4.51251 l 1.18088,-10.42176 c -0.10736,0 -41.11613,-4.61996 -65.80728,-4.61996 -6.76323,0.10744 -12.77499,1.28929 -18.35733,3.43811 z"
         style="display:inline" />
    </g>
  </g>
</svg>
